<?xml version="1.0" standalone="no"?>
<svg xmlns:xlink="http://www.w3.org/1999/xlink" id="wave" style="transform:rotate(0deg); transition: 0.3s" viewBox="0 0 1440 250" version="1.1" xmlns="http://www.w3.org/2000/svg"><defs><linearGradient id="sw-gradient-0" x1="0" x2="0" y1="1" y2="0"><stop stop-color="rgba(47, 79, 79, 1)" offset="0%"/><stop stop-color="rgba(255, 255, 255, 1)" offset="100%"/></linearGradient></defs><path style="transform:translate(0, 0px); opacity:1" fill="url(#sw-gradient-0)" d="M0,25L48,37.5C96,50,192,75,288,70.8C384,67,480,33,576,29.2C672,25,768,50,864,87.5C960,125,1056,175,1152,183.3C1248,192,1344,158,1440,158.3C1536,158,1632,192,1728,208.3C1824,225,1920,225,2016,204.2C2112,183,2208,142,2304,141.7C2400,142,2496,183,2592,175C2688,167,2784,108,2880,79.2C2976,50,3072,50,3168,66.7C3264,83,3360,117,3456,129.2C3552,142,3648,133,3744,112.5C3840,92,3936,58,4032,50C4128,42,4224,58,4320,91.7C4416,125,4512,175,4608,183.3C4704,192,4800,158,4896,129.2C4992,100,5088,75,5184,87.5C5280,100,5376,150,5472,166.7C5568,183,5664,167,5760,150C5856,133,5952,117,6048,129.2C6144,142,6240,183,6336,183.3C6432,183,6528,142,6624,108.3C6720,75,6816,50,6864,37.5L6912,25L6912,250L6864,250C6816,250,6720,250,6624,250C6528,250,6432,250,6336,250C6240,250,6144,250,6048,250C5952,250,5856,250,5760,250C5664,250,5568,250,5472,250C5376,250,5280,250,5184,250C5088,250,4992,250,4896,250C4800,250,4704,250,4608,250C4512,250,4416,250,4320,250C4224,250,4128,250,4032,250C3936,250,3840,250,3744,250C3648,250,3552,250,3456,250C3360,250,3264,250,3168,250C3072,250,2976,250,2880,250C2784,250,2688,250,2592,250C2496,250,2400,250,2304,250C2208,250,2112,250,2016,250C1920,250,1824,250,1728,250C1632,250,1536,250,1440,250C1344,250,1248,250,1152,250C1056,250,960,250,864,250C768,250,672,250,576,250C480,250,384,250,288,250C192,250,96,250,48,250L0,250Z"/><defs><linearGradient id="sw-gradient-1" x1="0" x2="0" y1="1" y2="0"><stop stop-color="rgba(47, 79, 79, 1)" offset="0%"/><stop stop-color="rgba(255, 255, 255, 1)" offset="100%"/></linearGradient></defs><path style="transform:translate(0, 50px); opacity:0.9" fill="url(#sw-gradient-1)" d="M0,200L48,187.5C96,175,192,150,288,129.2C384,108,480,92,576,75C672,58,768,42,864,66.7C960,92,1056,158,1152,158.3C1248,158,1344,92,1440,75C1536,58,1632,92,1728,120.8C1824,150,1920,175,2016,154.2C2112,133,2208,67,2304,58.3C2400,50,2496,100,2592,104.2C2688,108,2784,67,2880,50C2976,33,3072,42,3168,75C3264,108,3360,167,3456,191.7C3552,217,3648,208,3744,170.8C3840,133,3936,67,4032,66.7C4128,67,4224,133,4320,137.5C4416,142,4512,83,4608,54.2C4704,25,4800,25,4896,37.5C4992,50,5088,75,5184,91.7C5280,108,5376,117,5472,116.7C5568,117,5664,108,5760,87.5C5856,67,5952,33,6048,41.7C6144,50,6240,100,6336,125C6432,150,6528,150,6624,133.3C6720,117,6816,83,6864,66.7L6912,50L6912,250L6864,250C6816,250,6720,250,6624,250C6528,250,6432,250,6336,250C6240,250,6144,250,6048,250C5952,250,5856,250,5760,250C5664,250,5568,250,5472,250C5376,250,5280,250,5184,250C5088,250,4992,250,4896,250C4800,250,4704,250,4608,250C4512,250,4416,250,4320,250C4224,250,4128,250,4032,250C3936,250,3840,250,3744,250C3648,250,3552,250,3456,250C3360,250,3264,250,3168,250C3072,250,2976,250,2880,250C2784,250,2688,250,2592,250C2496,250,2400,250,2304,250C2208,250,2112,250,2016,250C1920,250,1824,250,1728,250C1632,250,1536,250,1440,250C1344,250,1248,250,1152,250C1056,250,960,250,864,250C768,250,672,250,576,250C480,250,384,250,288,250C192,250,96,250,48,250L0,250Z"/><defs><linearGradient id="sw-gradient-2" x1="0" x2="0" y1="1" y2="0"><stop stop-color="rgba(47, 79, 79, 1)" offset="0%"/><stop stop-color="rgba(255, 255, 255, 1)" offset="100%"/></linearGradient></defs><path style="transform:translate(0, 100px); opacity:0.8" fill="url(#sw-gradient-2)" d="M0,100L48,87.5C96,75,192,50,288,41.7C384,33,480,42,576,58.3C672,75,768,100,864,104.2C960,108,1056,92,1152,83.3C1248,75,1344,75,1440,83.3C1536,92,1632,108,1728,125C1824,142,1920,158,2016,166.7C2112,175,2208,175,2304,183.3C2400,192,2496,208,2592,179.2C2688,150,2784,75,2880,37.5C2976,0,3072,0,3168,25C3264,50,3360,100,3456,112.5C3552,125,3648,100,3744,104.2C3840,108,3936,142,4032,166.7C4128,192,4224,208,4320,216.7C4416,225,4512,225,4608,200C4704,175,4800,125,4896,87.5C4992,50,5088,25,5184,25C5280,25,5376,50,5472,66.7C5568,83,5664,92,5760,112.5C5856,133,5952,167,6048,150C6144,133,6240,67,6336,70.8C6432,75,6528,150,6624,187.5C6720,225,6816,225,6864,225L6912,225L6912,250L6864,250C6816,250,6720,250,6624,250C6528,250,6432,250,6336,250C6240,250,6144,250,6048,250C5952,250,5856,250,5760,250C5664,250,5568,250,5472,250C5376,250,5280,250,5184,250C5088,250,4992,250,4896,250C4800,250,4704,250,4608,250C4512,250,4416,250,4320,250C4224,250,4128,250,4032,250C3936,250,3840,250,3744,250C3648,250,3552,250,3456,250C3360,250,3264,250,3168,250C3072,250,2976,250,2880,250C2784,250,2688,250,2592,250C2496,250,2400,250,2304,250C2208,250,2112,250,2016,250C1920,250,1824,250,1728,250C1632,250,1536,250,1440,250C1344,250,1248,250,1152,250C1056,250,960,250,864,250C768,250,672,250,576,250C480,250,384,250,288,250C192,250,96,250,48,250L0,250Z"/></svg>